<svg width="215" height="34" viewBox="0 0 215 34" fill="none" xmlns="http://www.w3.org/2000/svg">
<path d="M15.6311 17.7181C15.6311 20.5602 14.9831 22.8432 13.699 24.5794C12.409 26.3151 10.664 27.1858 8.46349 27.1858C6.22192 27.1858 4.45348 26.4679 3.16339 25.0325V34H0V8.19117H2.88913L3.0469 10.2509C4.33079 8.6443 6.12288 7.83828 8.41077 7.83828C10.6347 7.83828 12.3973 8.68553 13.6872 10.3744C14.9831 12.0634 15.6311 14.4109 15.6311 17.4238V17.7181ZM160.606 24.2202C161.738 24.2202 162.725 23.8789 163.565 23.1905C164.411 22.5019 164.878 21.6429 164.966 20.6073H167.96C167.902 21.6781 167.54 22.6961 166.869 23.6612C166.192 24.6263 165.293 25.3971 164.172 25.9737C163.051 26.5445 161.861 26.8329 160.606 26.8329C158.09 26.8329 156.082 25.9855 154.594 24.2908C153.111 22.5961 152.364 20.2718 152.364 17.3296V16.794C152.364 14.9817 152.697 13.3634 153.356 11.9513C154.016 10.5389 154.967 9.4386 156.205 8.65603C157.442 7.87325 158.901 7.48499 160.588 7.48499C162.666 7.48499 164.388 8.10871 165.766 9.36201C167.137 10.6155 167.867 12.2455 167.96 14.2402H164.966C164.878 13.034 164.423 12.0396 163.606 11.2627C162.795 10.4859 161.785 10.0977 160.588 10.0977C158.983 10.0977 157.74 10.6802 156.853 11.8453C155.971 13.0164 155.528 14.6992 155.528 16.9119V17.5119C155.528 19.6598 155.965 21.3191 156.847 22.4784C157.722 23.6377 158.977 24.2202 160.606 24.2202ZM174.965 26.4798H171.801V0H174.965V26.4798ZM191.442 24.6439C190.216 26.1033 188.407 26.8329 186.026 26.8329C184.053 26.8329 182.553 26.2563 181.519 25.1028C180.486 23.9437 179.967 22.2371 179.955 19.9716V7.83808H183.119V19.8775C183.119 22.702 184.257 24.1143 186.539 24.1143C188.956 24.1143 190.561 23.2081 191.361 21.3957V7.83808H194.524V26.4798H191.512L191.442 24.6439ZM215 17.3648C215 20.2188 214.346 22.5079 213.05 24.2378C211.749 25.9679 210.004 26.8329 207.815 26.8329C205.48 26.8329 203.67 25.9974 202.398 24.332L202.24 26.4798H199.334V0H202.497V9.88001C203.775 8.28516 205.538 7.48499 207.78 7.48499C210.027 7.48499 211.79 8.34417 213.074 10.0565C214.358 11.7687 215 14.1108 215 17.0883V17.3648ZM211.836 17.0059C211.836 14.8346 211.416 13.1575 210.587 11.9747C209.753 10.7919 208.556 10.2036 206.998 10.2036C204.908 10.2036 203.408 11.1804 202.497 13.1281V21.1898C203.466 23.1375 204.978 24.1143 207.027 24.1143C208.544 24.1143 209.723 23.5258 210.57 22.343C211.41 21.1603 211.836 19.3774 211.836 17.0059ZM107.958 7.94145C109.908 7.94145 111.32 8.38266 112.202 9.27134C112.739 9.81846 113.101 10.46 113.305 11.1896C113.503 11.9192 113.603 12.9314 113.603 14.22V24.0237C113.603 24.6122 113.684 25.0358 113.848 25.3006C114.017 25.5656 114.291 25.7008 114.683 25.7008C115.161 25.7008 115.681 25.4536 116.253 24.9594L116.644 25.5595C116.235 25.8714 115.914 26.101 115.687 26.2481C115.459 26.4011 115.149 26.5365 114.747 26.6659C114.35 26.7893 113.918 26.8542 113.451 26.8542C112.318 26.8542 111.536 26.5717 111.099 26.0009C110.661 25.4301 110.439 24.671 110.439 23.7177C109.756 24.8535 108.933 25.6595 107.976 26.1363C107.019 26.6129 106.044 26.8542 105.051 26.8542C103.785 26.8542 102.728 26.5187 101.882 25.8538C101.03 25.1888 100.604 24.2062 100.604 22.9056C100.604 22.2289 100.726 21.6228 100.965 21.0932C101.205 20.5696 101.596 20.0869 102.139 19.6457C102.676 19.2102 103.254 18.8278 103.861 18.504C104.473 18.1745 105.267 17.8039 106.248 17.392C106.4 17.3212 106.645 17.2153 106.995 17.0799C107.34 16.9388 107.585 16.8388 107.731 16.78C107.871 16.7151 108.087 16.6209 108.367 16.4916C108.653 16.3679 108.857 16.268 108.974 16.1914C109.097 16.115 109.254 16.0208 109.458 15.8972C109.657 15.7795 109.797 15.6678 109.884 15.5736C109.966 15.4735 110.065 15.3559 110.165 15.2264C110.27 15.0911 110.34 14.9616 110.381 14.8203C110.422 14.6851 110.439 14.538 110.439 14.3908V12.2018C110.439 10.8306 110.159 9.90092 109.593 9.4007C109.026 8.90047 108.227 8.64743 107.188 8.64743C105.536 8.64743 104.38 9.07125 103.72 9.90678C104.188 10.0244 104.579 10.2716 104.888 10.66C105.203 11.0424 105.361 11.5132 105.361 12.0605C105.361 12.6607 105.174 13.1256 104.806 13.467C104.433 13.8081 103.937 13.9789 103.306 13.9789C102.717 13.9789 102.25 13.773 101.917 13.3728C101.578 12.9726 101.409 12.4431 101.409 11.784C101.409 10.866 101.958 10.0303 103.049 9.27134C104.398 8.38266 106.032 7.94145 107.958 7.94145ZM110.439 22.7704V15.8383C110.27 16.1031 109.984 16.3503 109.581 16.5799C109.184 16.8093 108.355 17.2329 107.089 17.8568C106.598 18.098 106.195 18.3158 105.88 18.5099C105.565 18.7041 105.221 18.9808 104.835 19.3278C104.456 19.6809 104.17 20.1106 103.977 20.6108C103.779 21.1167 103.686 21.6935 103.686 22.3348C103.686 23.3587 103.942 24.1356 104.456 24.6534C104.964 25.1771 105.647 25.4419 106.487 25.4419C108.04 25.4419 109.353 24.5475 110.439 22.7704ZM128.58 7.94145C129.514 7.94145 130.285 8.21208 130.88 8.75334C131.481 9.29479 131.779 9.94801 131.779 10.7189C131.779 11.3367 131.598 11.8663 131.23 12.2959C130.868 12.7254 130.384 12.9431 129.777 12.9431C129.263 12.9431 128.826 12.7784 128.464 12.4489C128.096 12.1252 127.915 11.6781 127.915 11.1132C127.915 10.3423 128.312 9.70669 129.111 9.20061C128.954 8.97121 128.709 8.85338 128.376 8.85338C127.681 8.85338 127.016 9.07711 126.386 9.51833C125.749 9.95974 125.23 10.5188 124.827 11.1896C124.424 11.8663 124.097 12.5842 123.858 13.3491C123.619 14.1083 123.502 14.8262 123.502 15.4911V22.9763C123.502 24.0649 123.812 24.824 124.424 25.2418C125.043 25.6595 125.971 25.8714 127.215 25.8714V26.6129C124.343 26.5187 122.545 26.4775 121.827 26.4775C121.208 26.4775 119.831 26.5187 117.689 26.6129V25.8714C118.669 25.8714 119.358 25.689 119.755 25.3301C120.158 24.9653 120.356 24.3003 120.356 23.3353V12.2842C120.356 11.1954 120.158 10.4011 119.766 9.90678C119.37 9.41242 118.681 9.16543 117.689 9.16543V8.42389C118.43 8.49443 119.154 8.5298 119.86 8.5298C121.342 8.5298 122.557 8.36508 123.502 8.04736V12.4607C123.922 11.2838 124.594 10.2423 125.51 9.31843C126.426 8.40044 127.454 7.94145 128.58 7.94145ZM138.912 8.45926H144.089V9.16543H138.912V22.835C138.912 23.906 139.099 24.671 139.472 25.1359C139.852 25.6066 140.412 25.8362 141.147 25.8362C141.877 25.8362 142.502 25.5419 143.015 24.9594C143.529 24.3709 143.961 23.4058 144.311 22.0642L145 22.2348C144.428 25.489 142.91 27.1131 140.447 27.1131C139.011 27.1131 137.908 26.7247 137.132 25.9421C136.63 25.4243 136.273 24.7886 136.069 24.0356C135.865 23.2823 135.766 22.2701 135.766 20.9932V9.16543H132.392V8.45926H135.766V3.06309C137.073 3.02772 138.124 2.863 138.912 2.56287V8.45926ZM86.0932 3.67235V8.19117H89.5431V10.6628H86.0932V22.2256C86.0932 22.9728 86.2451 23.5316 86.5543 23.9084C86.8578 24.279 87.3833 24.4674 88.1246 24.4674C88.4921 24.4674 88.9941 24.3969 89.6305 24.2613V26.8446C88.7957 27.0682 87.9901 27.1858 87.2024 27.1858C85.7899 27.1858 84.7215 26.7565 84.0036 25.8913C83.2857 25.0325 82.9298 23.8081 82.9298 22.2256V10.6628H79.5561V8.19117H82.9298V3.67235H86.0932ZM60.9776 17.3414C60.9776 15.5114 61.3334 13.8697 62.0455 12.4104C62.7576 10.9453 63.7498 9.8212 65.0221 9.0269C66.2889 8.23259 67.7422 7.83828 69.3707 7.83828C71.8922 7.83828 73.9292 8.71523 75.4876 10.4744C77.0403 12.2338 77.8166 14.5759 77.8166 17.4944V17.7181C77.8166 19.5365 77.4723 21.1661 76.7835 22.6078C76.0948 24.0494 75.1085 25.1734 73.824 25.9794C72.5459 26.7858 71.0692 27.1858 69.4058 27.1858C66.8958 27.1858 64.8647 26.3092 63.312 24.5497C61.7536 22.7903 60.9776 20.4599 60.9776 17.5649V17.3414ZM64.1584 17.7122C64.1584 19.7776 64.6313 21.443 65.5826 22.6963C66.5341 23.9496 67.8122 24.5735 69.4058 24.5735C71.011 24.5735 72.2891 23.9379 73.2348 22.6668C74.1802 21.3957 74.6532 19.6188 74.6532 17.3296C74.6532 15.282 74.1744 13.6284 73.2113 12.3575C72.2484 11.0862 70.9699 10.451 69.3707 10.451C67.8122 10.451 66.5515 11.0745 65.5942 12.3282C64.6371 13.5815 64.1584 15.376 64.1584 17.7122ZM59.4834 11.0335C59.0046 10.9512 58.485 10.91 57.9307 10.91C55.8527 10.91 54.4459 11.7983 53.7047 13.5815V17.1348C52.8289 16.1461 52.215 15.3676 51.4106 14.1786C51.0856 13.6979 50.8718 13.2972 50.5412 12.8534V8.19117H53.6171L53.6697 10.339C54.7087 8.67381 56.1797 7.83828 58.0824 7.83828C58.7009 7.83828 59.168 7.92054 59.4834 8.0796V11.0335ZM41.8806 18.6883L41.8557 26.8329H38.6924V8.19117H41.7683L41.8209 10.339C42.8599 8.67381 44.3309 7.83828 46.2336 7.83828C46.8521 7.83828 47.319 7.92054 47.6346 8.0796V10.4787C46.4999 10.0572 45.2 10.1438 43.9273 10.4004C42.5491 10.678 41.546 11.2025 40.958 12.0923C40.6362 12.5789 40.4149 13.1821 40.3455 13.8789C40.1941 15.4057 40.3238 14.4958 39.9778 15.8446C39.7283 16.8171 39.8057 17.9344 40.3674 18.7619C40.4796 18.9272 40.7655 19.2924 40.9136 19.4804C40.9457 19.1879 40.9105 18.8917 41.1591 18.4489C41.3592 18.5511 41.6049 18.6279 41.8806 18.6883ZM31.0695 26.8329C30.8884 26.4679 30.7427 25.8149 30.6258 24.8734C29.1549 26.415 27.3983 27.1858 25.361 27.1858C23.534 27.1858 22.0398 26.668 20.8724 25.6265C19.705 24.5852 19.1214 23.2669 19.1214 21.6724C19.1214 19.7303 19.851 18.2181 21.3161 17.1473C22.781 16.0705 24.8416 15.5351 27.4973 15.5351H30.5733V14.0698C30.5733 12.9576 30.2465 12.0693 29.5869 11.4043C28.9215 10.7452 27.9468 10.4158 26.6625 10.4158C25.5304 10.4158 24.5847 10.704 23.8203 11.2746C23.0553 11.8516 22.6762 12.5459 22.6762 13.3577H19.4949C19.4949 12.428 19.8219 11.5276 20.4757 10.6569C21.1351 9.79189 22.0224 9.1033 23.1489 8.59741C24.2694 8.09132 25.5011 7.83828 26.8494 7.83828C28.9799 7.83828 30.6491 8.37367 31.8574 9.45072C33.0655 10.5215 33.696 12.0044 33.7369 13.8873V22.4726C33.7369 24.1849 33.9586 25.5443 34.3906 26.5564V26.8329H31.0695ZM25.8221 24.4674C26.8143 24.4674 27.7541 24.2085 28.6415 23.6848C29.5344 23.167 30.1763 22.4845 30.5733 21.6546V17.7945H28.0986C24.2227 17.7945 22.285 18.9477 22.285 21.2546C22.285 22.2608 22.6118 23.0492 23.2714 23.6143C23.9368 24.1849 24.7832 24.4674 25.8221 24.4674ZM12.4675 17.3593C12.4675 15.2584 12.0242 13.5991 11.1311 12.3811C10.2438 11.163 9.02383 10.5569 7.47111 10.5569C5.55672 10.5569 4.12088 11.4102 3.16358 13.1225V22.0253C4.10925 23.7259 5.55672 24.5735 7.50639 24.5735C9.02383 24.5735 10.2321 23.9672 11.1253 22.7551C12.018 21.5429 12.4675 19.7483 12.4675 17.3593Z" fill="black"/>
</svg>
